<svg width="24" height="22" viewBox="0 0 24 22" fill="none" xmlns="http://www.w3.org/2000/svg">
<path d="M2 3.60871C2 3.04561 2 2.76406 2.1211 2.54898C2.22763 2.3598 2.39761 2.20599 2.60668 2.10958C2.84436 2 3.1555 2 3.77778 2H20.2222C20.8446 2 21.1557 2 21.3933 2.10958C21.6024 2.20599 21.7723 2.3598 21.8789 2.54898C22 2.76406 22 3.04561 22 3.60871V5.35543C22 5.60135 22 5.7243 21.9693 5.84002C21.9421 5.94262 21.8972 6.04069 21.8362 6.13064C21.7676 6.23211 21.6714 6.31906 21.4793 6.49295L14.7429 12.5887C14.5508 12.7626 14.4547 12.8495 14.386 12.951C14.325 13.041 14.2801 13.139 14.2529 13.2417C14.2222 13.3574 14.2222 13.4804 14.2222 13.7262V16.0762L9.77778 20.098V13.7262C9.77778 13.4804 9.77778 13.3574 9.74708 13.2417C9.71986 13.139 9.67497 13.041 9.61404 12.951C9.54533 12.8495 9.44924 12.7626 9.25708 12.5887L2.5207 6.49295C2.32853 6.31906 2.23244 6.23211 2.16373 6.13064C2.10281 6.04069 2.05792 5.94262 2.0307 5.84002C2 5.7243 2 5.60135 2 5.35543V3.60871Z" stroke="#F1DAC4" stroke-width="3" stroke-linecap="round" stroke-linejoin="round"/>
</svg>
