<svg width="35" height="34" viewBox="0 0 35 34" fill="none" xmlns="http://www.w3.org/2000/svg">
<path d="M6.9931 25.4999C8.44518 24.4166 10.0681 23.5624 11.8618 22.9374C13.6556 22.3124 15.5348 21.9999 17.4993 21.9999C19.4639 21.9999 21.3431 22.3124 23.1368 22.9374C24.9306 23.5624 26.5535 24.4166 28.0056 25.4999C29.0021 24.361 29.778 23.0694 30.3332 21.6249C30.8884 20.1805 31.166 18.6388 31.166 16.9999C31.166 13.3055 29.8349 10.1596 27.1728 7.56242C24.5106 4.9652 21.2862 3.66659 17.4993 3.66659C13.7125 3.66659 10.4881 4.9652 7.82591 7.56242C5.16376 10.1596 3.83268 13.3055 3.83268 16.9999C3.83268 18.6388 4.11029 20.1805 4.66549 21.6249C5.2207 23.0694 5.99657 24.361 6.9931 25.4999ZM17.4993 18.6666C15.8195 18.6666 14.403 18.1041 13.2499 16.9791C12.0967 15.8541 11.5202 14.4721 11.5202 12.8333C11.5202 11.1944 12.0967 9.81242 13.2499 8.68742C14.403 7.56242 15.8195 6.99992 17.4993 6.99992C19.1792 6.99992 20.5957 7.56242 21.7488 8.68742C22.902 9.81242 23.4785 11.1944 23.4785 12.8333C23.4785 14.4721 22.902 15.8541 21.7488 16.9791C20.5957 18.1041 19.1792 18.6666 17.4993 18.6666ZM17.4993 33.6666C15.1362 33.6666 12.9153 33.2291 10.8368 32.3541C8.75838 31.4791 6.95039 30.2916 5.41289 28.7916C3.87539 27.2916 2.6582 25.5277 1.76133 23.4999C0.864453 21.4721 0.416016 19.3055 0.416016 16.9999C0.416016 14.6944 0.864453 12.5277 1.76133 10.4999C2.6582 8.47214 3.87539 6.70825 5.41289 5.20825C6.95039 3.70825 8.75838 2.52075 10.8368 1.64575C12.9153 0.770752 15.1362 0.333252 17.4993 0.333252C19.8625 0.333252 22.0834 0.770752 24.1618 1.64575C26.2403 2.52075 28.0483 3.70825 29.5858 5.20825C31.1233 6.70825 32.3405 8.47214 33.2374 10.4999C34.1342 12.5277 34.5827 14.6944 34.5827 16.9999C34.5827 19.3055 34.1342 21.4721 33.2374 23.4999C32.3405 25.5277 31.1233 27.2916 29.5858 28.7916C28.0483 30.2916 26.2403 31.4791 24.1618 32.3541C22.0834 33.2291 19.8625 33.6666 17.4993 33.6666Z" fill="#F1DAC4"/>
</svg>
