<svg width="41" height="40" viewBox="0 0 41 40" fill="none" xmlns="http://www.w3.org/2000/svg">
<rect x="0.5" y="0.5" width="40" height="39" stroke="black"/>
<path d="M9.99408 28.4999C11.4462 27.4166 13.0691 26.5624 14.8628 25.9374C16.6566 25.3124 18.5357 24.9999 20.5003 24.9999C22.4649 24.9999 24.3441 25.3124 26.1378 25.9374C27.9316 26.5624 29.5545 27.4166 31.0066 28.4999C32.0031 27.361 32.779 26.0694 33.3342 24.6249C33.8894 23.1805 34.167 21.6388 34.167 19.9999C34.167 16.3055 32.8359 13.1596 30.1738 10.5624C27.5116 7.9652 24.2871 6.66659 20.5003 6.66659C16.7135 6.66659 13.489 7.9652 10.8269 10.5624C8.16474 13.1596 6.83366 16.3055 6.83366 19.9999C6.83366 21.6388 7.11126 23.1805 7.66647 24.6249C8.22168 26.0694 8.99755 27.361 9.99408 28.4999ZM20.5003 21.6666C18.8205 21.6666 17.404 21.1041 16.2508 19.9791C15.0977 18.8541 14.5212 17.4721 14.5212 15.8333C14.5212 14.1944 15.0977 12.8124 16.2508 11.6874C17.404 10.5624 18.8205 9.99992 20.5003 9.99992C22.1802 9.99992 23.5967 10.5624 24.7498 11.6874C25.9029 12.8124 26.4795 14.1944 26.4795 15.8333C26.4795 17.4721 25.9029 18.8541 24.7498 19.9791C23.5967 21.1041 22.1802 21.6666 20.5003 21.6666ZM20.5003 36.6666C18.1371 36.6666 15.9163 36.2291 13.8378 35.3541C11.7594 34.4791 9.95137 33.2916 8.41387 31.7916C6.87637 30.2916 5.65918 28.5277 4.7623 26.4999C3.86543 24.4721 3.41699 22.3055 3.41699 19.9999C3.41699 17.6944 3.86543 15.5277 4.7623 13.4999C5.65918 11.4721 6.87637 9.70825 8.41387 8.20825C9.95137 6.70825 11.7594 5.52075 13.8378 4.64575C15.9163 3.77075 18.1371 3.33325 20.5003 3.33325C22.8635 3.33325 25.0844 3.77075 27.1628 4.64575C29.2413 5.52075 31.0493 6.70825 32.5868 8.20825C34.1243 9.70825 35.3415 11.4721 36.2383 13.4999C37.1352 15.5277 37.5837 17.6944 37.5837 19.9999C37.5837 22.3055 37.1352 24.4721 36.2383 26.4999C35.3415 28.5277 34.1243 30.2916 32.5868 31.7916C31.0493 33.2916 29.2413 34.4791 27.1628 35.3541C25.0844 36.2291 22.8635 36.6666 20.5003 36.6666Z" fill="#F1DAC4"/>
</svg>
